<svg xmlns="http://www.w3.org/2000/svg" viewBox="0 0 80 80"><g id="Layer_2" data-name="Layer 2"><g id="Layer_1-2" data-name="Layer 1"><path d="M40,0A40,40,0,1,0,80,40,40,40,0,0,0,40,0ZM50.52,72.71,40,73.63l-10.58-.94L9.82,25.33l4.82-9.7,12.58,2.52,7.4,17.9C26.75,37.69,22,45.19,23.56,51c1.92,7.13,11.11-.72,11.11-.72-1.09,8.37,3.24,15.84,3.24,15.84s.34.45,3.8,0-.11-2.61-.11-2.61c-3.37-2.07-1.79-11.82,1.2-14.75a11.45,11.45,0,0,1,7.65-3.23,6.1,6.1,0,1,0-1.2-6,25.66,25.66,0,0,0-4.36-2.31l7.9-19L64.5,15.63l5.68,9.77Zm.2-31.25a4.33,4.33,0,1,1,4.33,4.33A4.33,4.33,0,0,1,50.72,41.46Z"/></g></g></svg>